<mxfile host="Electron" modified="2024-07-07T19:57:37.365Z" agent="Mozilla/5.0 (Windows NT 10.0; Win64; x64) AppleWebKit/537.36 (KHTML, like Gecko) draw.io/23.1.5 Chrome/120.0.6099.109 Electron/28.1.0 Safari/537.36" etag="eigxZWJKFrIYwuK9KFK9" version="23.1.5" type="device">
  <diagram name="Page-1" id="3TUpHSHA1gtK3B0JEU8y">
    <mxGraphModel dx="1178" dy="709" grid="1" gridSize="10" guides="1" tooltips="1" connect="1" arrows="1" fold="1" page="1" pageScale="1" pageWidth="583" pageHeight="413" math="0" shadow="0">
      <root>
        <mxCell id="0" />
        <mxCell id="1" parent="0" />
        <mxCell id="Oqj0lCqGSd9x4aoH6hf5-116" value="" style="endArrow=none;html=1;rounded=0;" edge="1" parent="1">
          <mxGeometry width="50" height="50" relative="1" as="geometry">
            <mxPoint x="110" y="440" as="sourcePoint" />
            <mxPoint x="109.5" y="440" as="targetPoint" />
            <Array as="points">
              <mxPoint x="170" y="440" />
              <mxPoint x="199.5" y="320" />
              <mxPoint x="184.5" y="320" />
              <mxPoint x="160" y="425" />
              <mxPoint x="120" y="425" />
              <mxPoint x="94.5" y="320" />
              <mxPoint x="79.5" y="320" />
            </Array>
          </mxGeometry>
        </mxCell>
        <mxCell id="QgdDYN5rGUicbWpnFUVR-7" value="" style="endArrow=none;html=1;rounded=0;strokeWidth=0.2;strokeColor=#007FFF;endFill=0;endSize=4;startArrow=none;startFill=0;startSize=4;dashed=1;" parent="1" edge="1">
          <mxGeometry width="50" height="50" relative="1" as="geometry">
            <mxPoint x="171" y="200" as="sourcePoint" />
            <mxPoint x="171" y="55" as="targetPoint" />
          </mxGeometry>
        </mxCell>
        <mxCell id="nw0UZW-xQefEUAk0dn4Y-22" value="" style="endArrow=classicThin;html=1;rounded=0;strokeWidth=0.2;strokeColor=#007FFF;endFill=1;endSize=4;startArrow=classicThin;startFill=1;startSize=4;" parent="1" edge="1">
          <mxGeometry width="50" height="50" relative="1" as="geometry">
            <mxPoint x="71" y="198" as="sourcePoint" />
            <mxPoint x="71" y="78" as="targetPoint" />
          </mxGeometry>
        </mxCell>
        <mxCell id="nw0UZW-xQefEUAk0dn4Y-40" value="" style="ellipse;whiteSpace=wrap;html=1;aspect=fixed;fillColor=none;connectable=0;allowArrows=0;" parent="1" vertex="1">
          <mxGeometry x="250" y="80" width="120" height="120" as="geometry" />
        </mxCell>
        <mxCell id="nw0UZW-xQefEUAk0dn4Y-41" value="" style="ellipse;whiteSpace=wrap;html=1;aspect=fixed;fillColor=none;connectable=0;allowArrows=0;" parent="1" vertex="1">
          <mxGeometry x="265" y="95" width="90" height="90" as="geometry" />
        </mxCell>
        <mxCell id="QgdDYN5rGUicbWpnFUVR-4" value="&lt;div style=&quot;&quot;&gt;&lt;span style=&quot;background-color: initial;&quot;&gt;mug&lt;/span&gt;&lt;/div&gt;&lt;div style=&quot;&quot;&gt;&lt;span style=&quot;background-color: initial;&quot;&gt;height&lt;/span&gt;&lt;/div&gt;" style="text;html=1;align=right;verticalAlign=middle;whiteSpace=wrap;rounded=0;fontSize=10;fontColor=#007FFF;allowArrows=0;connectable=0;spacingLeft=2;spacingTop=2;spacingBottom=2;spacingRight=2;" parent="1" vertex="1">
          <mxGeometry x="21" y="120" width="50" height="40" as="geometry" />
        </mxCell>
        <mxCell id="QgdDYN5rGUicbWpnFUVR-5" value="" style="endArrow=classicThin;html=1;rounded=0;strokeWidth=0.2;strokeColor=#007FFF;endFill=1;endSize=4;startArrow=classicThin;startFill=1;startSize=4;" parent="1" edge="1">
          <mxGeometry width="50" height="50" relative="1" as="geometry">
            <mxPoint x="96" y="140" as="sourcePoint" />
            <mxPoint x="186" y="140" as="targetPoint" />
          </mxGeometry>
        </mxCell>
        <mxCell id="QgdDYN5rGUicbWpnFUVR-6" value="&lt;div style=&quot;&quot;&gt;&lt;span style=&quot;background-color: initial;&quot;&gt;mug size&lt;/span&gt;&lt;/div&gt;" style="text;html=1;align=center;verticalAlign=bottom;whiteSpace=wrap;rounded=0;fontSize=10;fontColor=#007FFF;allowArrows=0;connectable=0;spacingLeft=2;spacingTop=2;spacingBottom=2;spacingRight=2;" parent="1" vertex="1">
          <mxGeometry x="111" y="120" width="60" height="20" as="geometry" />
        </mxCell>
        <mxCell id="QgdDYN5rGUicbWpnFUVR-8" value="" style="endArrow=classicThin;html=1;rounded=0;strokeWidth=0.2;strokeColor=#007FFF;endFill=1;endSize=4;startArrow=classicThin;startFill=1;startSize=4;curved=1;" parent="1" edge="1">
          <mxGeometry width="50" height="50" relative="1" as="geometry">
            <mxPoint x="203" y="69" as="sourcePoint" />
            <mxPoint x="171" y="63" as="targetPoint" />
            <Array as="points">
              <mxPoint x="192" y="63" />
            </Array>
          </mxGeometry>
        </mxCell>
        <mxCell id="QgdDYN5rGUicbWpnFUVR-9" value="" style="endArrow=none;html=1;rounded=0;strokeWidth=0.2;strokeColor=#007FFF;endFill=0;endSize=4;startArrow=none;startFill=0;startSize=4;dashed=1;" parent="1" edge="1">
          <mxGeometry width="50" height="50" relative="1" as="geometry">
            <mxPoint x="200" y="80" as="sourcePoint" />
            <mxPoint x="204" y="63" as="targetPoint" />
          </mxGeometry>
        </mxCell>
        <mxCell id="QgdDYN5rGUicbWpnFUVR-11" value="&lt;div style=&quot;&quot;&gt;&lt;span style=&quot;background-color: initial;&quot;&gt;mug shape&lt;/span&gt;&lt;/div&gt;" style="text;html=1;align=center;verticalAlign=bottom;whiteSpace=wrap;rounded=0;fontSize=10;fontColor=#007FFF;allowArrows=0;connectable=0;spacingLeft=2;spacingTop=2;spacingBottom=2;spacingRight=2;" parent="1" vertex="1">
          <mxGeometry x="171" y="40" width="40" height="25" as="geometry" />
        </mxCell>
        <mxCell id="nw0UZW-xQefEUAk0dn4Y-36" value="" style="ellipse;whiteSpace=wrap;html=1;aspect=fixed;connectable=0;fillColor=#007FFF;strokeColor=none;" parent="1" vertex="1">
          <mxGeometry x="138" y="198" width="4" height="4" as="geometry" />
        </mxCell>
        <mxCell id="QgdDYN5rGUicbWpnFUVR-16" value="" style="ellipse;whiteSpace=wrap;html=1;aspect=fixed;connectable=0;fillColor=#007FFF;strokeColor=none;" parent="1" vertex="1">
          <mxGeometry x="308" y="138" width="4" height="4" as="geometry" />
        </mxCell>
        <mxCell id="QgdDYN5rGUicbWpnFUVR-20" value="" style="endArrow=classicThin;html=1;rounded=0;strokeWidth=0.2;strokeColor=#007FFF;endFill=1;endSize=4;startArrow=classicThin;startFill=1;startSize=4;" parent="1" edge="1">
          <mxGeometry width="50" height="50" relative="1" as="geometry">
            <mxPoint x="309.79" y="94.5" as="sourcePoint" />
            <mxPoint x="309.79" y="79.5" as="targetPoint" />
          </mxGeometry>
        </mxCell>
        <mxCell id="QgdDYN5rGUicbWpnFUVR-21" value="&lt;div style=&quot;&quot;&gt;mug width&lt;/div&gt;" style="text;html=1;align=left;verticalAlign=middle;whiteSpace=wrap;rounded=0;fontSize=10;fontColor=#007FFF;allowArrows=0;connectable=0;spacingLeft=2;spacingTop=2;spacingBottom=2;spacingRight=2;" parent="1" vertex="1">
          <mxGeometry x="282" y="57" width="66" height="23" as="geometry" />
        </mxCell>
        <mxCell id="QgdDYN5rGUicbWpnFUVR-26" value="" style="endArrow=none;html=1;rounded=0;curved=1;" parent="1" edge="1">
          <mxGeometry width="50" height="50" relative="1" as="geometry">
            <mxPoint x="370" y="130" as="sourcePoint" />
            <mxPoint x="370" y="150" as="targetPoint" />
            <Array as="points">
              <mxPoint x="390" y="130" />
              <mxPoint x="410" y="130" />
              <mxPoint x="410" y="150" />
              <mxPoint x="390" y="150" />
            </Array>
          </mxGeometry>
        </mxCell>
        <mxCell id="QgdDYN5rGUicbWpnFUVR-27" value="" style="endArrow=classicThin;html=1;rounded=0;strokeWidth=0.2;strokeColor=#007FFF;endFill=1;endSize=4;startArrow=classicThin;startFill=1;startSize=4;" parent="1" edge="1">
          <mxGeometry width="50" height="50" relative="1" as="geometry">
            <mxPoint x="390" y="149.5" as="sourcePoint" />
            <mxPoint x="390" y="130.5" as="targetPoint" />
          </mxGeometry>
        </mxCell>
        <mxCell id="QgdDYN5rGUicbWpnFUVR-28" value="&lt;div style=&quot;&quot;&gt;handle width&lt;/div&gt;" style="text;html=1;align=left;verticalAlign=middle;whiteSpace=wrap;rounded=0;fontSize=10;fontColor=#007FFF;allowArrows=0;connectable=0;spacingLeft=2;spacingTop=2;spacingBottom=2;spacingRight=2;" parent="1" vertex="1">
          <mxGeometry x="368" y="155" width="48" height="30" as="geometry" />
        </mxCell>
        <mxCell id="QgdDYN5rGUicbWpnFUVR-30" value="" style="endArrow=classicThin;html=1;rounded=0;strokeWidth=0.2;strokeColor=#007FFF;endFill=1;endSize=4;startArrow=classicThin;startFill=1;startSize=4;" parent="1" edge="1">
          <mxGeometry width="50" height="50" relative="1" as="geometry">
            <mxPoint x="470" y="190" as="sourcePoint" />
            <mxPoint x="470" y="90" as="targetPoint" />
          </mxGeometry>
        </mxCell>
        <mxCell id="QgdDYN5rGUicbWpnFUVR-31" value="" style="endArrow=none;html=1;rounded=0;" parent="1" edge="1">
          <mxGeometry width="50" height="50" relative="1" as="geometry">
            <mxPoint x="490" y="80" as="sourcePoint" />
            <mxPoint x="490" y="80" as="targetPoint" />
            <Array as="points">
              <mxPoint x="550" y="80" />
              <mxPoint x="520" y="200" />
              <mxPoint x="460" y="200" />
              <mxPoint x="430" y="80" />
            </Array>
          </mxGeometry>
        </mxCell>
        <mxCell id="QgdDYN5rGUicbWpnFUVR-32" value="&lt;div style=&quot;&quot;&gt;&lt;span style=&quot;&quot;&gt;handle&lt;/span&gt;&lt;/div&gt;&lt;div style=&quot;&quot;&gt;&lt;span style=&quot;&quot;&gt;position&lt;/span&gt;&lt;/div&gt;" style="text;html=1;align=right;verticalAlign=middle;whiteSpace=wrap;rounded=0;fontSize=10;fontColor=#007FFF;allowArrows=0;connectable=0;spacingLeft=2;spacingTop=2;spacingBottom=2;spacingRight=2;labelBackgroundColor=default;" parent="1" vertex="1">
          <mxGeometry x="416" y="114" width="50" height="40" as="geometry" />
        </mxCell>
        <mxCell id="QgdDYN5rGUicbWpnFUVR-35" value="" style="endArrow=classicThin;html=1;rounded=0;strokeWidth=0.2;strokeColor=#007FFF;endFill=1;endSize=4;startArrow=classicThin;startFill=1;startSize=4;curved=1;" parent="1" edge="1">
          <mxGeometry width="50" height="50" relative="1" as="geometry">
            <mxPoint x="617" y="88" as="sourcePoint" />
            <mxPoint x="556" y="59" as="targetPoint" />
            <Array as="points">
              <mxPoint x="594" y="63" />
            </Array>
          </mxGeometry>
        </mxCell>
        <mxCell id="QgdDYN5rGUicbWpnFUVR-36" value="" style="endArrow=none;html=1;rounded=0;strokeWidth=0.2;strokeColor=#007FFF;endFill=0;endSize=4;startArrow=none;startFill=0;startSize=4;dashed=1;" parent="1" edge="1">
          <mxGeometry width="50" height="50" relative="1" as="geometry">
            <mxPoint x="550" y="80" as="sourcePoint" />
            <mxPoint x="558" y="47" as="targetPoint" />
          </mxGeometry>
        </mxCell>
        <mxCell id="QgdDYN5rGUicbWpnFUVR-37" value="&lt;div style=&quot;&quot;&gt;&lt;span style=&quot;background-color: initial;&quot;&gt;handle shape&lt;/span&gt;&lt;/div&gt;" style="text;html=1;align=center;verticalAlign=middle;whiteSpace=wrap;rounded=0;fontSize=10;fontColor=#007FFF;allowArrows=0;connectable=0;spacingLeft=2;spacingTop=2;spacingBottom=2;spacingRight=2;" parent="1" vertex="1">
          <mxGeometry x="582" y="39" width="40" height="25" as="geometry" />
        </mxCell>
        <mxCell id="QgdDYN5rGUicbWpnFUVR-38" value="" style="ellipse;whiteSpace=wrap;html=1;aspect=fixed;connectable=0;fillColor=#007FFF;strokeColor=none;" parent="1" vertex="1">
          <mxGeometry x="488" y="198" width="4" height="4" as="geometry" />
        </mxCell>
        <mxCell id="QgdDYN5rGUicbWpnFUVR-40" value="" style="endArrow=none;html=1;rounded=0;curved=1;" parent="1" edge="1">
          <mxGeometry width="50" height="50" relative="1" as="geometry">
            <mxPoint x="547" y="91" as="sourcePoint" />
            <mxPoint x="523" y="189" as="targetPoint" />
            <Array as="points">
              <mxPoint x="619" y="114" />
            </Array>
          </mxGeometry>
        </mxCell>
        <mxCell id="QgdDYN5rGUicbWpnFUVR-41" value="" style="endArrow=none;html=1;rounded=0;curved=1;" parent="1" edge="1">
          <mxGeometry width="50" height="50" relative="1" as="geometry">
            <mxPoint x="543" y="108" as="sourcePoint" />
            <mxPoint x="530" y="160" as="targetPoint" />
            <Array as="points">
              <mxPoint x="583" y="116" />
            </Array>
          </mxGeometry>
        </mxCell>
        <mxCell id="QgdDYN5rGUicbWpnFUVR-42" value="" style="endArrow=classicThin;html=1;rounded=0;strokeWidth=0.2;strokeColor=#007FFF;endFill=1;endSize=4;startArrow=classicThin;startFill=1;startSize=4;" parent="1" edge="1">
          <mxGeometry width="50" height="50" relative="1" as="geometry">
            <mxPoint x="630" y="189" as="sourcePoint" />
            <mxPoint x="630" y="89" as="targetPoint" />
          </mxGeometry>
        </mxCell>
        <mxCell id="QgdDYN5rGUicbWpnFUVR-43" value="&lt;div style=&quot;&quot;&gt;&lt;span style=&quot;background-color: initial;&quot;&gt;handle&lt;/span&gt;&lt;/div&gt;&lt;div style=&quot;&quot;&gt;&lt;span style=&quot;background-color: initial;&quot;&gt;height&lt;/span&gt;&lt;/div&gt;" style="text;html=1;align=left;verticalAlign=middle;whiteSpace=wrap;rounded=0;fontSize=10;fontColor=#007FFF;allowArrows=0;connectable=0;spacingLeft=2;spacingTop=2;spacingBottom=2;spacingRight=2;" parent="1" vertex="1">
          <mxGeometry x="630" y="141" width="50" height="40" as="geometry" />
        </mxCell>
        <mxCell id="QgdDYN5rGUicbWpnFUVR-44" value="" style="endArrow=classicThin;html=1;rounded=0;strokeWidth=0.2;strokeColor=#007FFF;endFill=1;endSize=4;startArrow=classicThin;startFill=1;startSize=4;" parent="1" edge="1">
          <mxGeometry width="50" height="50" relative="1" as="geometry">
            <mxPoint x="520" y="200" as="sourcePoint" />
            <mxPoint x="580" y="200" as="targetPoint" />
          </mxGeometry>
        </mxCell>
        <mxCell id="QgdDYN5rGUicbWpnFUVR-45" value="&lt;div style=&quot;&quot;&gt;&lt;span style=&quot;background-color: initial;&quot;&gt;handle size&lt;/span&gt;&lt;/div&gt;" style="text;html=1;align=right;verticalAlign=bottom;whiteSpace=wrap;rounded=0;fontSize=10;fontColor=#007FFF;allowArrows=0;connectable=0;spacingLeft=2;spacingTop=2;spacingBottom=2;spacingRight=2;" parent="1" vertex="1">
          <mxGeometry x="530" y="181" width="50" height="20" as="geometry" />
        </mxCell>
        <mxCell id="QgdDYN5rGUicbWpnFUVR-46" value="" style="endArrow=classicThin;html=1;rounded=0;strokeWidth=0.2;strokeColor=#007FFF;endFill=1;endSize=4;startArrow=classicThin;startFill=1;startSize=4;" parent="1" edge="1">
          <mxGeometry width="50" height="50" relative="1" as="geometry">
            <mxPoint x="538" y="107" as="sourcePoint" />
            <mxPoint x="542" y="90" as="targetPoint" />
          </mxGeometry>
        </mxCell>
        <mxCell id="QgdDYN5rGUicbWpnFUVR-49" value="&lt;div style=&quot;&quot;&gt;&lt;span style=&quot;background-color: initial;&quot;&gt;handle&lt;/span&gt;&lt;/div&gt;&lt;div style=&quot;&quot;&gt;&lt;span style=&quot;background-color: initial;&quot;&gt;thickness&lt;/span&gt;&lt;/div&gt;" style="text;html=1;align=right;verticalAlign=middle;whiteSpace=wrap;rounded=0;fontSize=10;fontColor=#007FFF;allowArrows=0;connectable=0;spacingLeft=2;spacingTop=2;spacingBottom=2;spacingRight=2;" parent="1" vertex="1">
          <mxGeometry x="489" y="78" width="50" height="40" as="geometry" />
        </mxCell>
        <mxCell id="QgdDYN5rGUicbWpnFUVR-50" value="" style="endArrow=none;html=1;rounded=0;strokeWidth=0.2;strokeColor=#007FFF;endFill=0;endSize=4;startArrow=none;startFill=0;startSize=4;dashed=1;" parent="1" edge="1">
          <mxGeometry width="50" height="50" relative="1" as="geometry">
            <mxPoint x="565" y="149" as="sourcePoint" />
            <mxPoint x="631" y="74" as="targetPoint" />
          </mxGeometry>
        </mxCell>
        <mxCell id="QgdDYN5rGUicbWpnFUVR-59" value="" style="group" parent="1" vertex="1" connectable="0">
          <mxGeometry x="467" y="110" width="7" height="50" as="geometry" />
        </mxCell>
        <mxCell id="QgdDYN5rGUicbWpnFUVR-53" value="" style="endArrow=none;html=1;rounded=0;strokeWidth=0.2;strokeColor=#007FFF;endFill=0;endSize=4;startArrow=none;startFill=0;startSize=4;" parent="QgdDYN5rGUicbWpnFUVR-59" edge="1">
          <mxGeometry width="50" height="50" relative="1" as="geometry">
            <mxPoint x="5" as="sourcePoint" />
            <mxPoint as="targetPoint" />
          </mxGeometry>
        </mxCell>
        <mxCell id="QgdDYN5rGUicbWpnFUVR-54" value="" style="endArrow=none;html=1;rounded=0;strokeWidth=0.2;strokeColor=#007FFF;endFill=0;endSize=4;startArrow=none;startFill=0;startSize=4;" parent="QgdDYN5rGUicbWpnFUVR-59" edge="1">
          <mxGeometry width="50" height="50" relative="1" as="geometry">
            <mxPoint x="5" y="10" as="sourcePoint" />
            <mxPoint y="10" as="targetPoint" />
          </mxGeometry>
        </mxCell>
        <mxCell id="QgdDYN5rGUicbWpnFUVR-55" value="" style="endArrow=none;html=1;rounded=0;strokeWidth=0.2;strokeColor=#007FFF;endFill=0;endSize=4;startArrow=none;startFill=0;startSize=4;" parent="QgdDYN5rGUicbWpnFUVR-59" edge="1">
          <mxGeometry width="50" height="50" relative="1" as="geometry">
            <mxPoint x="5" y="20" as="sourcePoint" />
            <mxPoint y="20" as="targetPoint" />
          </mxGeometry>
        </mxCell>
        <mxCell id="QgdDYN5rGUicbWpnFUVR-56" value="" style="endArrow=none;html=1;rounded=0;strokeWidth=0.2;strokeColor=#007FFF;endFill=0;endSize=4;startArrow=none;startFill=0;startSize=4;" parent="QgdDYN5rGUicbWpnFUVR-59" edge="1">
          <mxGeometry width="50" height="50" relative="1" as="geometry">
            <mxPoint x="5" y="30" as="sourcePoint" />
            <mxPoint y="30" as="targetPoint" />
          </mxGeometry>
        </mxCell>
        <mxCell id="QgdDYN5rGUicbWpnFUVR-57" value="" style="endArrow=none;html=1;rounded=0;strokeWidth=0.2;strokeColor=#007FFF;endFill=0;endSize=4;startArrow=none;startFill=0;startSize=4;" parent="QgdDYN5rGUicbWpnFUVR-59" edge="1">
          <mxGeometry width="50" height="50" relative="1" as="geometry">
            <mxPoint x="5" y="40" as="sourcePoint" />
            <mxPoint y="40" as="targetPoint" />
          </mxGeometry>
        </mxCell>
        <mxCell id="QgdDYN5rGUicbWpnFUVR-58" value="" style="endArrow=none;html=1;rounded=0;strokeWidth=0.2;strokeColor=#007FFF;endFill=0;endSize=4;startArrow=none;startFill=0;startSize=4;" parent="QgdDYN5rGUicbWpnFUVR-59" edge="1">
          <mxGeometry width="50" height="50" relative="1" as="geometry">
            <mxPoint x="5" y="50" as="sourcePoint" />
            <mxPoint y="50" as="targetPoint" />
          </mxGeometry>
        </mxCell>
        <mxCell id="GuuXcOX3FdyUFc3QZ8Hx-1" value="" style="endArrow=none;html=1;rounded=0;" parent="1" edge="1">
          <mxGeometry width="50" height="50" relative="1" as="geometry">
            <mxPoint x="170" y="200" as="sourcePoint" />
            <mxPoint x="110" y="200" as="targetPoint" />
            <Array as="points">
              <mxPoint x="200" y="80" />
              <mxPoint x="185" y="80" />
              <mxPoint x="160" y="185" />
              <mxPoint x="120" y="185" />
              <mxPoint x="95" y="80" />
              <mxPoint x="80" y="80" />
            </Array>
          </mxGeometry>
        </mxCell>
        <mxCell id="GuuXcOX3FdyUFc3QZ8Hx-13" value="" style="endArrow=classicThin;html=1;rounded=0;strokeWidth=0.2;strokeColor=#007FFF;endFill=1;endSize=4;startArrow=classicThin;startFill=1;startSize=4;" parent="1" edge="1">
          <mxGeometry width="50" height="50" relative="1" as="geometry">
            <mxPoint x="80.21" y="69" as="sourcePoint" />
            <mxPoint x="95" y="69" as="targetPoint" />
          </mxGeometry>
        </mxCell>
        <mxCell id="GuuXcOX3FdyUFc3QZ8Hx-14" value="&lt;div style=&quot;&quot;&gt;mug width&lt;/div&gt;" style="text;html=1;align=center;verticalAlign=middle;whiteSpace=wrap;rounded=0;fontSize=10;fontColor=#007FFF;allowArrows=0;connectable=0;spacingLeft=2;spacingTop=2;spacingBottom=2;spacingRight=2;" parent="1" vertex="1">
          <mxGeometry x="73" y="39" width="32" height="25.5" as="geometry" />
        </mxCell>
        <mxCell id="Oqj0lCqGSd9x4aoH6hf5-56" value="" style="endArrow=none;html=1;rounded=1;curved=0;" edge="1" parent="1">
          <mxGeometry width="50" height="50" relative="1" as="geometry">
            <mxPoint x="170" y="200" as="sourcePoint" />
            <mxPoint x="110" y="200" as="targetPoint" />
            <Array as="points">
              <mxPoint x="160" y="200" />
              <mxPoint x="150" y="195" />
              <mxPoint x="130" y="195" />
              <mxPoint x="120" y="200" />
            </Array>
          </mxGeometry>
        </mxCell>
        <mxCell id="Oqj0lCqGSd9x4aoH6hf5-57" value="" style="endArrow=none;html=1;rounded=0;strokeWidth=0.5;dashed=1;strokeColor=#000000;" edge="1" parent="1">
          <mxGeometry width="50" height="50" relative="1" as="geometry">
            <mxPoint x="170" y="200" as="sourcePoint" />
            <mxPoint x="110" y="200" as="targetPoint" />
          </mxGeometry>
        </mxCell>
        <mxCell id="Oqj0lCqGSd9x4aoH6hf5-58" value="uv = 0.0" style="rotation=0;connectable=1;allowArrows=0;fillColor=#FF0000;strokeColor=#FF0000;strokeWidth=0.1;fontSize=6;spacing=0;spacingBottom=0;rounded=1;whiteSpace=wrap;html=1;shape=label;fontColor=#FFFFFF;dashed=1;labelBackgroundColor=none;" vertex="1" parent="1">
          <mxGeometry x="125" y="210" width="30" height="10" as="geometry" />
        </mxCell>
        <mxCell id="Oqj0lCqGSd9x4aoH6hf5-59" value="" style="endArrow=oval;html=1;rounded=0;strokeWidth=0.1;strokeColor=#FF0000;startSize=3;endSize=3;exitX=0.5;exitY=0;exitDx=0;exitDy=0;endFill=1;dashed=1;" edge="1" parent="1" source="Oqj0lCqGSd9x4aoH6hf5-58">
          <mxGeometry width="50" height="50" relative="1" as="geometry">
            <mxPoint x="220" y="249" as="sourcePoint" />
            <mxPoint x="140" y="195" as="targetPoint" />
          </mxGeometry>
        </mxCell>
        <mxCell id="Oqj0lCqGSd9x4aoH6hf5-60" value="" style="endArrow=oval;html=1;rounded=0;strokeWidth=0.1;strokeColor=#FF0000;startSize=3;endSize=3;exitX=0;exitY=0;exitDx=0;exitDy=0;endFill=1;dashed=1;" edge="1" source="Oqj0lCqGSd9x4aoH6hf5-61" parent="1">
          <mxGeometry width="50" height="50" relative="1" as="geometry">
            <mxPoint x="250" y="254" as="sourcePoint" />
            <mxPoint x="170" y="200" as="targetPoint" />
          </mxGeometry>
        </mxCell>
        <mxCell id="Oqj0lCqGSd9x4aoH6hf5-61" value="uv = 0.1" style="rotation=0;connectable=1;allowArrows=0;fillColor=#FF0000;strokeColor=#FF0000;strokeWidth=0.1;fontSize=6;spacing=0;spacingBottom=0;rounded=1;whiteSpace=wrap;html=1;shape=label;fontColor=#FFFFFF;dashed=1;labelBackgroundColor=none;" vertex="1" parent="1">
          <mxGeometry x="177" y="210" width="30" height="10" as="geometry" />
        </mxCell>
        <mxCell id="Oqj0lCqGSd9x4aoH6hf5-62" value="" style="endArrow=oval;html=1;rounded=0;strokeWidth=0.1;strokeColor=#FF0000;startSize=3;endSize=3;exitX=0;exitY=1;exitDx=0;exitDy=0;endFill=1;dashed=1;" edge="1" source="Oqj0lCqGSd9x4aoH6hf5-63" parent="1">
          <mxGeometry width="50" height="50" relative="1" as="geometry">
            <mxPoint x="287" y="107" as="sourcePoint" />
            <mxPoint x="200" y="80" as="targetPoint" />
          </mxGeometry>
        </mxCell>
        <mxCell id="Oqj0lCqGSd9x4aoH6hf5-63" value="uv = 0.5" style="rotation=0;connectable=1;allowArrows=0;fillColor=#FF0000;strokeColor=#FF0000;strokeWidth=0.1;fontSize=6;spacing=0;spacingBottom=0;rounded=1;whiteSpace=wrap;html=1;shape=label;fontColor=#FFFFFF;dashed=1;labelBackgroundColor=none;" vertex="1" parent="1">
          <mxGeometry x="220" y="60.5" width="30" height="10" as="geometry" />
        </mxCell>
        <mxCell id="Oqj0lCqGSd9x4aoH6hf5-64" value="" style="endArrow=oval;html=1;rounded=0;strokeWidth=0.1;strokeColor=#FF0000;startSize=3;endSize=3;exitX=0;exitY=0.5;exitDx=0;exitDy=0;endFill=1;dashed=1;" edge="1" source="Oqj0lCqGSd9x4aoH6hf5-65" parent="1">
          <mxGeometry width="50" height="50" relative="1" as="geometry">
            <mxPoint x="203" y="192" as="sourcePoint" />
            <mxPoint x="160" y="185" as="targetPoint" />
          </mxGeometry>
        </mxCell>
        <mxCell id="Oqj0lCqGSd9x4aoH6hf5-65" value="uv = 0.9" style="rotation=0;connectable=1;allowArrows=0;fillColor=#FF0000;strokeColor=#FF0000;strokeWidth=0.1;fontSize=6;spacing=0;spacingBottom=0;rounded=1;whiteSpace=wrap;html=1;shape=label;fontColor=#FFFFFF;dashed=1;labelBackgroundColor=none;" vertex="1" parent="1">
          <mxGeometry x="184" y="180" width="30" height="10" as="geometry" />
        </mxCell>
        <mxCell id="Oqj0lCqGSd9x4aoH6hf5-66" value="uv = 1.0" style="rotation=0;connectable=1;allowArrows=0;fillColor=#FF0000;strokeColor=#FF0000;strokeWidth=0.1;fontSize=6;spacing=0;spacingBottom=0;rounded=1;whiteSpace=wrap;html=1;shape=label;fontColor=#FFFFFF;dashed=1;labelBackgroundColor=none;" vertex="1" parent="1">
          <mxGeometry x="125" y="155" width="30" height="10" as="geometry" />
        </mxCell>
        <mxCell id="Oqj0lCqGSd9x4aoH6hf5-67" value="" style="endArrow=oval;html=1;rounded=0;strokeWidth=0.1;strokeColor=#FF0000;startSize=3;endSize=3;exitX=0.5;exitY=1;exitDx=0;exitDy=0;endFill=1;dashed=1;" edge="1" parent="1" source="Oqj0lCqGSd9x4aoH6hf5-66">
          <mxGeometry width="50" height="50" relative="1" as="geometry">
            <mxPoint x="152" y="160" as="sourcePoint" />
            <mxPoint x="140" y="185" as="targetPoint" />
          </mxGeometry>
        </mxCell>
        <mxCell id="Oqj0lCqGSd9x4aoH6hf5-68" value="" style="endArrow=oval;html=1;rounded=0;strokeWidth=0.1;strokeColor=#FF0000;startSize=3;endSize=3;exitX=1;exitY=0.5;exitDx=0;exitDy=0;endFill=1;dashed=1;" edge="1" source="Oqj0lCqGSd9x4aoH6hf5-69" parent="1">
          <mxGeometry width="50" height="50" relative="1" as="geometry">
            <mxPoint x="463" y="119" as="sourcePoint" />
            <mxPoint x="370" y="140" as="targetPoint" />
          </mxGeometry>
        </mxCell>
        <mxCell id="Oqj0lCqGSd9x4aoH6hf5-69" value="uv = 0.0" style="rotation=0;connectable=1;allowArrows=0;fillColor=#FF0000;strokeColor=#FF0000;strokeWidth=0.1;fontSize=6;spacing=0;spacingBottom=0;rounded=1;whiteSpace=wrap;html=1;shape=label;fontColor=#FFFFFF;dashed=1;labelBackgroundColor=none;" vertex="1" parent="1">
          <mxGeometry x="319" y="128" width="30" height="10" as="geometry" />
        </mxCell>
        <mxCell id="Oqj0lCqGSd9x4aoH6hf5-70" value="" style="endArrow=oval;html=1;rounded=0;strokeWidth=0.1;strokeColor=#FF0000;startSize=3;endSize=3;exitX=0;exitY=0.5;exitDx=0;exitDy=0;endFill=1;dashed=1;" edge="1" source="Oqj0lCqGSd9x4aoH6hf5-71" parent="1">
          <mxGeometry width="50" height="50" relative="1" as="geometry">
            <mxPoint x="358" y="154" as="sourcePoint" />
            <mxPoint x="250" y="140" as="targetPoint" />
          </mxGeometry>
        </mxCell>
        <mxCell id="Oqj0lCqGSd9x4aoH6hf5-71" value="uv = 0.5" style="rotation=0;connectable=1;allowArrows=0;fillColor=#FF0000;strokeColor=#FF0000;strokeWidth=0.1;fontSize=6;spacing=0;spacingBottom=0;rounded=1;whiteSpace=wrap;html=1;shape=label;fontColor=#FFFFFF;dashed=1;labelBackgroundColor=none;" vertex="1" parent="1">
          <mxGeometry x="272" y="135" width="30" height="10" as="geometry" />
        </mxCell>
        <mxCell id="Oqj0lCqGSd9x4aoH6hf5-76" value="uv = 1.0" style="rotation=0;connectable=1;allowArrows=0;fillColor=#FF0000;strokeColor=#FF0000;strokeWidth=0.1;fontSize=6;spacing=0;spacingBottom=0;rounded=1;whiteSpace=wrap;html=1;shape=label;fontColor=#FFFFFF;dashed=1;labelBackgroundColor=none;" vertex="1" parent="1">
          <mxGeometry x="319" y="141" width="30" height="10" as="geometry" />
        </mxCell>
        <mxCell id="Oqj0lCqGSd9x4aoH6hf5-77" value="" style="endArrow=oval;html=1;rounded=0;strokeWidth=0.1;strokeColor=#FF0000;startSize=3;endSize=3;exitX=1;exitY=0.5;exitDx=0;exitDy=0;endFill=1;dashed=1;" edge="1" parent="1" source="Oqj0lCqGSd9x4aoH6hf5-76">
          <mxGeometry width="50" height="50" relative="1" as="geometry">
            <mxPoint x="348" y="155" as="sourcePoint" />
            <mxPoint x="370" y="140" as="targetPoint" />
          </mxGeometry>
        </mxCell>
        <mxCell id="Oqj0lCqGSd9x4aoH6hf5-78" value="uv = 0.0" style="rotation=0;connectable=1;allowArrows=0;fillColor=#FF0000;strokeColor=#FF0000;strokeWidth=0.1;fontSize=6;spacing=0;spacingBottom=0;rounded=1;whiteSpace=wrap;html=1;shape=label;fontColor=#FFFFFF;dashed=1;labelBackgroundColor=none;" vertex="1" parent="1">
          <mxGeometry x="542" y="210" width="30" height="10" as="geometry" />
        </mxCell>
        <mxCell id="Oqj0lCqGSd9x4aoH6hf5-79" value="" style="endArrow=oval;html=1;rounded=0;strokeWidth=0.1;strokeColor=#FF0000;startSize=3;endSize=3;exitX=0;exitY=0;exitDx=0;exitDy=0;endFill=1;dashed=1;" edge="1" source="Oqj0lCqGSd9x4aoH6hf5-78" parent="1">
          <mxGeometry width="50" height="50" relative="1" as="geometry">
            <mxPoint x="686" y="201" as="sourcePoint" />
            <mxPoint x="523" y="189" as="targetPoint" />
          </mxGeometry>
        </mxCell>
        <mxCell id="Oqj0lCqGSd9x4aoH6hf5-81" value="" style="endArrow=oval;html=1;rounded=0;strokeWidth=0.1;strokeColor=#FF0000;startSize=3;endSize=3;endFill=1;dashed=1;exitX=0;exitY=1;exitDx=0;exitDy=0;" edge="1" source="Oqj0lCqGSd9x4aoH6hf5-82" parent="1">
          <mxGeometry width="50" height="50" relative="1" as="geometry">
            <mxPoint x="560" y="90" as="sourcePoint" />
            <mxPoint x="547" y="91" as="targetPoint" />
          </mxGeometry>
        </mxCell>
        <mxCell id="Oqj0lCqGSd9x4aoH6hf5-82" value="uv = 1.0" style="rotation=0;connectable=1;allowArrows=0;fillColor=#FF0000;strokeColor=#FF0000;strokeWidth=0.1;fontSize=6;spacing=0;spacingBottom=0;rounded=1;whiteSpace=wrap;html=1;shape=label;fontColor=#FFFFFF;dashed=1;labelBackgroundColor=none;" vertex="1" parent="1">
          <mxGeometry x="565" y="74" width="30" height="10" as="geometry" />
        </mxCell>
        <mxCell id="Oqj0lCqGSd9x4aoH6hf5-91" value="" style="ellipse;whiteSpace=wrap;html=1;aspect=fixed;connectable=0;fillColor=#007FFF;strokeColor=none;" vertex="1" parent="1">
          <mxGeometry x="317.5" y="438" width="4" height="4" as="geometry" />
        </mxCell>
        <mxCell id="Oqj0lCqGSd9x4aoH6hf5-92" value="" style="endArrow=none;html=1;rounded=0;" edge="1" parent="1">
          <mxGeometry width="50" height="50" relative="1" as="geometry">
            <mxPoint x="349.5" y="440" as="sourcePoint" />
            <mxPoint x="289.5" y="440" as="targetPoint" />
            <Array as="points">
              <mxPoint x="379.5" y="320" />
              <mxPoint x="364.5" y="320" />
              <mxPoint x="340" y="425" />
              <mxPoint x="300" y="425" />
              <mxPoint x="274.5" y="320" />
              <mxPoint x="259.5" y="320" />
            </Array>
          </mxGeometry>
        </mxCell>
        <mxCell id="Oqj0lCqGSd9x4aoH6hf5-95" value="" style="endArrow=none;html=1;rounded=1;curved=0;" edge="1" parent="1">
          <mxGeometry width="50" height="50" relative="1" as="geometry">
            <mxPoint x="349.5" y="440" as="sourcePoint" />
            <mxPoint x="289.5" y="440" as="targetPoint" />
            <Array as="points">
              <mxPoint x="340" y="440" />
              <mxPoint x="330" y="435" />
              <mxPoint x="310" y="435" />
              <mxPoint x="300" y="440" />
            </Array>
          </mxGeometry>
        </mxCell>
        <mxCell id="Oqj0lCqGSd9x4aoH6hf5-96" value="" style="endArrow=none;html=1;rounded=0;strokeWidth=0.5;dashed=1;strokeColor=#000000;" edge="1" parent="1">
          <mxGeometry width="50" height="50" relative="1" as="geometry">
            <mxPoint x="349.5" y="440" as="sourcePoint" />
            <mxPoint x="289.5" y="440" as="targetPoint" />
          </mxGeometry>
        </mxCell>
        <mxCell id="Oqj0lCqGSd9x4aoH6hf5-107" value="0" style="aspect=fixed;rotation=0;connectable=1;allowArrows=0;fillColor=none;strokeColor=#FF0000;strokeWidth=0.1;fontSize=6;spacing=0;spacingBottom=0;rounded=0;whiteSpace=wrap;html=1;shape=ellipse;perimeter=ellipsePerimeter;fontColor=#FF0000;dashed=1;" vertex="1" parent="1">
          <mxGeometry x="134" y="460" width="10" height="10" as="geometry" />
        </mxCell>
        <mxCell id="Oqj0lCqGSd9x4aoH6hf5-108" value="" style="endArrow=oval;html=1;rounded=0;strokeWidth=0.1;strokeColor=#FF0000;startSize=3;endSize=3;exitX=0.5;exitY=0;exitDx=0;exitDy=0;endFill=1;dashed=1;" edge="1" parent="1" source="Oqj0lCqGSd9x4aoH6hf5-107">
          <mxGeometry width="50" height="50" relative="1" as="geometry">
            <mxPoint x="152.25" y="450.36" as="sourcePoint" />
            <mxPoint x="139" y="440" as="targetPoint" />
          </mxGeometry>
        </mxCell>
        <mxCell id="Oqj0lCqGSd9x4aoH6hf5-109" value="2" style="aspect=fixed;rotation=0;connectable=1;allowArrows=0;fillColor=none;strokeColor=#FF0000;strokeWidth=0.1;fontSize=6;spacing=0;spacingBottom=0;rounded=0;whiteSpace=wrap;html=1;shape=ellipse;perimeter=ellipsePerimeter;fontColor=#FF0000;dashed=1;" vertex="1" parent="1">
          <mxGeometry x="169" y="460" width="10" height="10" as="geometry" />
        </mxCell>
        <mxCell id="Oqj0lCqGSd9x4aoH6hf5-110" value="" style="endArrow=oval;html=1;rounded=0;strokeWidth=0.1;strokeColor=#FF0000;startSize=3;endSize=3;exitX=0.5;exitY=0;exitDx=0;exitDy=0;endFill=1;dashed=1;" edge="1" parent="1" source="Oqj0lCqGSd9x4aoH6hf5-109">
          <mxGeometry width="50" height="50" relative="1" as="geometry">
            <mxPoint x="188" y="450" as="sourcePoint" />
            <mxPoint x="170" y="440" as="targetPoint" />
          </mxGeometry>
        </mxCell>
        <mxCell id="Oqj0lCqGSd9x4aoH6hf5-111" value="3" style="aspect=fixed;rotation=0;connectable=1;allowArrows=0;fillColor=none;strokeColor=#FF0000;strokeWidth=0.1;fontSize=6;spacing=0;spacingBottom=0;rounded=0;whiteSpace=wrap;html=1;shape=ellipse;perimeter=ellipsePerimeter;fontColor=#FF0000;dashed=1;" vertex="1" parent="1">
          <mxGeometry x="195" y="295" width="10" height="10" as="geometry" />
        </mxCell>
        <mxCell id="Oqj0lCqGSd9x4aoH6hf5-113" value="" style="endArrow=oval;html=1;rounded=0;strokeWidth=0.1;strokeColor=#FF0000;startSize=3;endSize=3;exitX=0.5;exitY=0;exitDx=0;exitDy=0;endFill=1;dashed=1;" edge="1" parent="1" source="Oqj0lCqGSd9x4aoH6hf5-114">
          <mxGeometry width="50" height="50" relative="1" as="geometry">
            <mxPoint x="178" y="450" as="sourcePoint" />
            <mxPoint x="165" y="440" as="targetPoint" />
          </mxGeometry>
        </mxCell>
        <mxCell id="Oqj0lCqGSd9x4aoH6hf5-114" value="1" style="aspect=fixed;rotation=0;connectable=1;allowArrows=0;fillColor=none;strokeColor=#FF0000;strokeWidth=0.1;fontSize=6;spacing=0;spacingBottom=0;rounded=0;whiteSpace=wrap;html=1;shape=ellipse;perimeter=ellipsePerimeter;fontColor=#FF0000;dashed=1;" vertex="1" parent="1">
          <mxGeometry x="155" y="460" width="10" height="10" as="geometry" />
        </mxCell>
        <mxCell id="Oqj0lCqGSd9x4aoH6hf5-112" value="" style="endArrow=oval;html=1;rounded=0;strokeWidth=0.1;strokeColor=#FF0000;startSize=3;endSize=3;exitX=0.5;exitY=1;exitDx=0;exitDy=0;endFill=1;dashed=1;" edge="1" parent="1" source="Oqj0lCqGSd9x4aoH6hf5-111">
          <mxGeometry width="50" height="50" relative="1" as="geometry">
            <mxPoint x="207" y="315.36" as="sourcePoint" />
            <mxPoint x="200" y="320" as="targetPoint" />
          </mxGeometry>
        </mxCell>
        <mxCell id="Oqj0lCqGSd9x4aoH6hf5-119" value="4" style="aspect=fixed;rotation=0;connectable=1;allowArrows=0;fillColor=none;strokeColor=#FF0000;strokeWidth=0.1;fontSize=6;spacing=0;spacingBottom=0;rounded=0;whiteSpace=wrap;html=1;shape=ellipse;perimeter=ellipsePerimeter;fontColor=#FF0000;dashed=1;" vertex="1" parent="1">
          <mxGeometry x="179" y="295" width="10" height="10" as="geometry" />
        </mxCell>
        <mxCell id="Oqj0lCqGSd9x4aoH6hf5-120" value="" style="endArrow=oval;html=1;rounded=0;strokeWidth=0.1;strokeColor=#FF0000;startSize=3;endSize=3;exitX=0.5;exitY=1;exitDx=0;exitDy=0;endFill=1;dashed=1;" edge="1" source="Oqj0lCqGSd9x4aoH6hf5-119" parent="1">
          <mxGeometry width="50" height="50" relative="1" as="geometry">
            <mxPoint x="161" y="315.36" as="sourcePoint" />
            <mxPoint x="184" y="320" as="targetPoint" />
          </mxGeometry>
        </mxCell>
        <mxCell id="Oqj0lCqGSd9x4aoH6hf5-121" value="" style="endArrow=oval;html=1;rounded=0;strokeWidth=0.1;strokeColor=#FF0000;startSize=3;endSize=3;exitX=0.5;exitY=1;exitDx=0;exitDy=0;endFill=1;dashed=1;" edge="1" source="Oqj0lCqGSd9x4aoH6hf5-122" parent="1">
          <mxGeometry width="50" height="50" relative="1" as="geometry">
            <mxPoint x="153.25" y="375.36" as="sourcePoint" />
            <mxPoint x="140" y="425" as="targetPoint" />
          </mxGeometry>
        </mxCell>
        <mxCell id="Oqj0lCqGSd9x4aoH6hf5-122" value="7" style="aspect=fixed;rotation=0;connectable=1;allowArrows=0;fillColor=none;strokeColor=#FF0000;strokeWidth=0.1;fontSize=6;spacing=0;spacingBottom=0;rounded=0;whiteSpace=wrap;html=1;shape=ellipse;perimeter=ellipsePerimeter;fontColor=#FF0000;dashed=1;" vertex="1" parent="1">
          <mxGeometry x="135" y="385" width="10" height="10" as="geometry" />
        </mxCell>
        <mxCell id="Oqj0lCqGSd9x4aoH6hf5-123" value="5" style="aspect=fixed;rotation=0;connectable=1;allowArrows=0;fillColor=none;strokeColor=#FF0000;strokeWidth=0.1;fontSize=6;spacing=0;spacingBottom=0;rounded=0;whiteSpace=wrap;html=1;shape=ellipse;perimeter=ellipsePerimeter;fontColor=#FF0000;dashed=1;" vertex="1" parent="1">
          <mxGeometry x="155" y="395" width="10" height="10" as="geometry" />
        </mxCell>
        <mxCell id="Oqj0lCqGSd9x4aoH6hf5-124" value="6" style="aspect=fixed;rotation=0;connectable=1;allowArrows=0;fillColor=none;strokeColor=#FF0000;strokeWidth=0.1;fontSize=6;spacing=0;spacingBottom=0;rounded=0;whiteSpace=wrap;html=1;shape=ellipse;perimeter=ellipsePerimeter;fontColor=#FF0000;dashed=1;" vertex="1" parent="1">
          <mxGeometry x="145" y="405" width="10" height="10" as="geometry" />
        </mxCell>
        <mxCell id="Oqj0lCqGSd9x4aoH6hf5-125" value="" style="endArrow=oval;html=1;rounded=0;strokeWidth=0.1;strokeColor=#FF0000;startSize=3;endSize=3;exitX=0.5;exitY=1;exitDx=0;exitDy=0;endFill=1;dashed=1;" edge="1" parent="1" source="Oqj0lCqGSd9x4aoH6hf5-123">
          <mxGeometry width="50" height="50" relative="1" as="geometry">
            <mxPoint x="149.95" y="395" as="sourcePoint" />
            <mxPoint x="160" y="425" as="targetPoint" />
          </mxGeometry>
        </mxCell>
        <mxCell id="Oqj0lCqGSd9x4aoH6hf5-126" value="" style="endArrow=oval;html=1;rounded=0;strokeWidth=0.1;strokeColor=#FF0000;startSize=3;endSize=3;exitX=0.727;exitY=0.955;exitDx=0;exitDy=0;endFill=1;dashed=1;exitPerimeter=0;" edge="1" parent="1" source="Oqj0lCqGSd9x4aoH6hf5-124">
          <mxGeometry width="50" height="50" relative="1" as="geometry">
            <mxPoint x="155" y="405" as="sourcePoint" />
            <mxPoint x="155" y="425" as="targetPoint" />
          </mxGeometry>
        </mxCell>
        <mxCell id="Oqj0lCqGSd9x4aoH6hf5-127" value="" style="endArrow=oval;html=1;rounded=0;strokeWidth=0.1;strokeColor=#FF0000;startSize=3;endSize=3;exitX=0.5;exitY=0;exitDx=0;exitDy=0;endFill=1;dashed=1;" edge="1" source="Oqj0lCqGSd9x4aoH6hf5-128" parent="1">
          <mxGeometry width="50" height="50" relative="1" as="geometry">
            <mxPoint x="332.75" y="445.36" as="sourcePoint" />
            <mxPoint x="319.5" y="435" as="targetPoint" />
          </mxGeometry>
        </mxCell>
        <mxCell id="Oqj0lCqGSd9x4aoH6hf5-128" value="0" style="aspect=fixed;rotation=0;connectable=1;allowArrows=0;fillColor=none;strokeColor=#FF0000;strokeWidth=0.1;fontSize=6;spacing=0;spacingBottom=0;rounded=0;whiteSpace=wrap;html=1;shape=ellipse;perimeter=ellipsePerimeter;fontColor=#FF0000;dashed=1;" vertex="1" parent="1">
          <mxGeometry x="314.5" y="460" width="10" height="10" as="geometry" />
        </mxCell>
        <mxCell id="Oqj0lCqGSd9x4aoH6hf5-129" value="" style="endArrow=oval;html=1;rounded=0;strokeWidth=0.1;strokeColor=#FF0000;startSize=3;endSize=3;exitX=0.5;exitY=0;exitDx=0;exitDy=0;endFill=1;dashed=1;" edge="1" source="Oqj0lCqGSd9x4aoH6hf5-130" parent="1">
          <mxGeometry width="50" height="50" relative="1" as="geometry">
            <mxPoint x="347" y="450" as="sourcePoint" />
            <mxPoint x="330" y="435" as="targetPoint" />
          </mxGeometry>
        </mxCell>
        <mxCell id="Oqj0lCqGSd9x4aoH6hf5-130" value="1" style="aspect=fixed;rotation=0;connectable=1;allowArrows=0;fillColor=none;strokeColor=#FF0000;strokeWidth=0.1;fontSize=6;spacing=0;spacingBottom=0;rounded=0;whiteSpace=wrap;html=1;shape=ellipse;perimeter=ellipsePerimeter;fontColor=#FF0000;dashed=1;" vertex="1" parent="1">
          <mxGeometry x="325" y="460" width="10" height="10" as="geometry" />
        </mxCell>
        <mxCell id="Oqj0lCqGSd9x4aoH6hf5-131" value="" style="endArrow=oval;html=1;rounded=0;strokeWidth=0.1;strokeColor=#FF0000;startSize=3;endSize=3;exitX=0.5;exitY=0;exitDx=0;exitDy=0;endFill=1;dashed=1;" edge="1" source="Oqj0lCqGSd9x4aoH6hf5-132" parent="1">
          <mxGeometry width="50" height="50" relative="1" as="geometry">
            <mxPoint x="358" y="450" as="sourcePoint" />
            <mxPoint x="340" y="440" as="targetPoint" />
          </mxGeometry>
        </mxCell>
        <mxCell id="Oqj0lCqGSd9x4aoH6hf5-132" value="2" style="aspect=fixed;rotation=0;connectable=1;allowArrows=0;fillColor=none;strokeColor=#FF0000;strokeWidth=0.1;fontSize=6;spacing=0;spacingBottom=0;rounded=0;whiteSpace=wrap;html=1;shape=ellipse;perimeter=ellipsePerimeter;fontColor=#FF0000;dashed=1;" vertex="1" parent="1">
          <mxGeometry x="335" y="449" width="10" height="10" as="geometry" />
        </mxCell>
        <mxCell id="Oqj0lCqGSd9x4aoH6hf5-133" value="3" style="aspect=fixed;rotation=0;connectable=1;allowArrows=0;fillColor=none;strokeColor=#FF0000;strokeWidth=0.1;fontSize=6;spacing=0;spacingBottom=0;rounded=0;whiteSpace=wrap;html=1;shape=ellipse;perimeter=ellipsePerimeter;fontColor=#FF0000;dashed=1;" vertex="1" parent="1">
          <mxGeometry x="360" y="450" width="10" height="10" as="geometry" />
        </mxCell>
        <mxCell id="Oqj0lCqGSd9x4aoH6hf5-134" value="" style="endArrow=oval;html=1;rounded=0;strokeWidth=0.1;strokeColor=#FF0000;startSize=3;endSize=3;exitX=0;exitY=0;exitDx=0;exitDy=0;endFill=1;dashed=1;" edge="1" source="Oqj0lCqGSd9x4aoH6hf5-133" parent="1">
          <mxGeometry width="50" height="50" relative="1" as="geometry">
            <mxPoint x="383" y="440" as="sourcePoint" />
            <mxPoint x="350" y="440" as="targetPoint" />
          </mxGeometry>
        </mxCell>
        <mxCell id="Oqj0lCqGSd9x4aoH6hf5-135" value="4" style="aspect=fixed;rotation=0;connectable=1;allowArrows=0;fillColor=none;strokeColor=#FF0000;strokeWidth=0.1;fontSize=6;spacing=0;spacingBottom=0;rounded=0;whiteSpace=wrap;html=1;shape=ellipse;perimeter=ellipsePerimeter;fontColor=#FF0000;dashed=1;" vertex="1" parent="1">
          <mxGeometry x="375" y="295" width="10" height="10" as="geometry" />
        </mxCell>
        <mxCell id="Oqj0lCqGSd9x4aoH6hf5-136" value="" style="endArrow=oval;html=1;rounded=0;strokeWidth=0.1;strokeColor=#FF0000;startSize=3;endSize=3;exitX=0.5;exitY=1;exitDx=0;exitDy=0;endFill=1;dashed=1;" edge="1" source="Oqj0lCqGSd9x4aoH6hf5-135" parent="1">
          <mxGeometry width="50" height="50" relative="1" as="geometry">
            <mxPoint x="387" y="315.36" as="sourcePoint" />
            <mxPoint x="380" y="320" as="targetPoint" />
          </mxGeometry>
        </mxCell>
        <mxCell id="Oqj0lCqGSd9x4aoH6hf5-137" value="5" style="aspect=fixed;rotation=0;connectable=1;allowArrows=0;fillColor=none;strokeColor=#FF0000;strokeWidth=0.1;fontSize=6;spacing=0;spacingBottom=0;rounded=0;whiteSpace=wrap;html=1;shape=ellipse;perimeter=ellipsePerimeter;fontColor=#FF0000;dashed=1;" vertex="1" parent="1">
          <mxGeometry x="360" y="295" width="10" height="10" as="geometry" />
        </mxCell>
        <mxCell id="Oqj0lCqGSd9x4aoH6hf5-138" value="" style="endArrow=oval;html=1;rounded=0;strokeWidth=0.1;strokeColor=#FF0000;startSize=3;endSize=3;exitX=0.5;exitY=1;exitDx=0;exitDy=0;endFill=1;dashed=1;" edge="1" source="Oqj0lCqGSd9x4aoH6hf5-137" parent="1">
          <mxGeometry width="50" height="50" relative="1" as="geometry">
            <mxPoint x="342" y="315.36" as="sourcePoint" />
            <mxPoint x="365" y="320" as="targetPoint" />
          </mxGeometry>
        </mxCell>
        <mxCell id="Oqj0lCqGSd9x4aoH6hf5-139" value="6" style="aspect=fixed;rotation=0;connectable=1;allowArrows=0;fillColor=none;strokeColor=#FF0000;strokeWidth=0.1;fontSize=6;spacing=0;spacingBottom=0;rounded=0;whiteSpace=wrap;html=1;shape=ellipse;perimeter=ellipsePerimeter;fontColor=#FF0000;dashed=1;" vertex="1" parent="1">
          <mxGeometry x="324" y="405" width="10" height="10" as="geometry" />
        </mxCell>
        <mxCell id="Oqj0lCqGSd9x4aoH6hf5-140" value="" style="endArrow=oval;html=1;rounded=0;strokeWidth=0.1;strokeColor=#FF0000;startSize=3;endSize=3;exitX=0.727;exitY=0.955;exitDx=0;exitDy=0;endFill=1;dashed=1;exitPerimeter=0;" edge="1" source="Oqj0lCqGSd9x4aoH6hf5-139" parent="1">
          <mxGeometry width="50" height="50" relative="1" as="geometry">
            <mxPoint x="334" y="405" as="sourcePoint" />
            <mxPoint x="339.5" y="425" as="targetPoint" />
          </mxGeometry>
        </mxCell>
        <mxCell id="Oqj0lCqGSd9x4aoH6hf5-141" value="7" style="aspect=fixed;rotation=0;connectable=1;allowArrows=0;fillColor=none;strokeColor=#FF0000;strokeWidth=0.1;fontSize=6;spacing=0;spacingBottom=0;rounded=0;whiteSpace=wrap;html=1;shape=ellipse;perimeter=ellipsePerimeter;fontColor=#FF0000;dashed=1;" vertex="1" parent="1">
          <mxGeometry x="314.5" y="385" width="10" height="10" as="geometry" />
        </mxCell>
        <mxCell id="Oqj0lCqGSd9x4aoH6hf5-142" value="" style="endArrow=oval;html=1;rounded=0;strokeWidth=0.1;strokeColor=#FF0000;startSize=3;endSize=3;exitX=0.5;exitY=1;exitDx=0;exitDy=0;endFill=1;dashed=1;" edge="1" source="Oqj0lCqGSd9x4aoH6hf5-141" parent="1">
          <mxGeometry width="50" height="50" relative="1" as="geometry">
            <mxPoint x="332.75" y="375.36" as="sourcePoint" />
            <mxPoint x="319.5" y="425" as="targetPoint" />
          </mxGeometry>
        </mxCell>
        <mxCell id="Oqj0lCqGSd9x4aoH6hf5-143" value="&lt;div style=&quot;font-size: 6px;&quot;&gt;mBotS&lt;/div&gt;" style="text;html=1;align=center;verticalAlign=middle;whiteSpace=wrap;rounded=0;fontSize=6;fontColor=#007FFF;allowArrows=0;connectable=0;spacingLeft=2;spacingTop=2;spacingBottom=2;spacingRight=2;" vertex="1" parent="1">
          <mxGeometry x="126" y="480" width="30" height="10" as="geometry" />
        </mxCell>
        <mxCell id="Oqj0lCqGSd9x4aoH6hf5-144" value="" style="endArrow=classicThin;html=1;rounded=0;strokeWidth=0.1;strokeColor=#007FFF;startSize=2;endSize=2;endFill=1;startArrow=classicThin;startFill=1;dashed=1;" edge="1" parent="1">
          <mxGeometry width="50" height="50" relative="1" as="geometry">
            <mxPoint x="108" y="480" as="sourcePoint" />
            <mxPoint x="170" y="480" as="targetPoint" />
          </mxGeometry>
        </mxCell>
        <mxCell id="Oqj0lCqGSd9x4aoH6hf5-145" value="" style="endArrow=classicThin;html=1;rounded=0;strokeWidth=0.1;strokeColor=#007FFF;startSize=2;endSize=2;endFill=1;startArrow=classicThin;startFill=1;dashed=1;" edge="1" parent="1">
          <mxGeometry width="50" height="50" relative="1" as="geometry">
            <mxPoint x="79" y="310" as="sourcePoint" />
            <mxPoint x="95" y="310" as="targetPoint" />
          </mxGeometry>
        </mxCell>
        <mxCell id="Oqj0lCqGSd9x4aoH6hf5-147" value="" style="endArrow=classicThin;html=1;rounded=0;strokeWidth=0.1;strokeColor=#007FFF;startSize=2;endSize=2;endFill=1;startArrow=classicThin;startFill=1;dashed=1;" edge="1" parent="1">
          <mxGeometry width="50" height="50" relative="1" as="geometry">
            <mxPoint x="44" y="499.64" as="sourcePoint" />
            <mxPoint x="44" y="509.64" as="targetPoint" />
          </mxGeometry>
        </mxCell>
        <mxCell id="Oqj0lCqGSd9x4aoH6hf5-148" value="&lt;div style=&quot;font-size: 6px;&quot;&gt;nK&lt;/div&gt;" style="text;html=1;align=center;verticalAlign=middle;whiteSpace=wrap;rounded=0;fontSize=6;fontColor=#007FFF;allowArrows=0;connectable=0;spacingLeft=2;spacingTop=2;spacingBottom=2;spacingRight=2;" vertex="1" parent="1">
          <mxGeometry x="45" y="499.64" width="10" height="10" as="geometry" />
        </mxCell>
        <mxCell id="Oqj0lCqGSd9x4aoH6hf5-149" value="" style="endArrow=classicThin;html=1;rounded=0;strokeWidth=0.1;strokeColor=#007FFF;startSize=2;endSize=2;endFill=1;startArrow=classicThin;startFill=1;dashed=1;" edge="1" parent="1">
          <mxGeometry width="50" height="50" relative="1" as="geometry">
            <mxPoint x="70" y="320" as="sourcePoint" />
            <mxPoint x="70" y="440" as="targetPoint" />
          </mxGeometry>
        </mxCell>
        <mxCell id="Oqj0lCqGSd9x4aoH6hf5-150" value="&lt;div style=&quot;font-size: 6px;&quot;&gt;mH&lt;/div&gt;" style="text;html=1;align=center;verticalAlign=middle;whiteSpace=wrap;rounded=0;fontSize=6;fontColor=#007FFF;allowArrows=0;connectable=0;spacingLeft=2;spacingTop=2;spacingBottom=2;spacingRight=2;" vertex="1" parent="1">
          <mxGeometry x="55" y="370" width="10" height="10" as="geometry" />
        </mxCell>
        <mxCell id="Oqj0lCqGSd9x4aoH6hf5-151" value="&lt;div style=&quot;font-size: 6px;&quot;&gt;mBotS&lt;/div&gt;" style="text;html=1;align=center;verticalAlign=middle;whiteSpace=wrap;rounded=0;fontSize=6;fontColor=#007FFF;allowArrows=0;connectable=0;spacingLeft=2;spacingTop=2;spacingBottom=2;spacingRight=2;" vertex="1" parent="1">
          <mxGeometry x="306.5" y="480" width="30" height="10" as="geometry" />
        </mxCell>
        <mxCell id="Oqj0lCqGSd9x4aoH6hf5-152" value="" style="endArrow=classicThin;html=1;rounded=0;strokeWidth=0.1;strokeColor=#007FFF;startSize=2;endSize=2;endFill=1;startArrow=classicThin;startFill=1;dashed=1;" edge="1" parent="1">
          <mxGeometry width="50" height="50" relative="1" as="geometry">
            <mxPoint x="288.5" y="480" as="sourcePoint" />
            <mxPoint x="350.5" y="480" as="targetPoint" />
          </mxGeometry>
        </mxCell>
        <mxCell id="Oqj0lCqGSd9x4aoH6hf5-153" value="" style="endArrow=classicThin;html=1;rounded=0;strokeWidth=0.1;strokeColor=#007FFF;startSize=2;endSize=2;endFill=1;startArrow=classicThin;startFill=1;dashed=1;" edge="1" parent="1">
          <mxGeometry width="50" height="50" relative="1" as="geometry">
            <mxPoint x="80" y="290" as="sourcePoint" />
            <mxPoint x="200" y="290" as="targetPoint" />
          </mxGeometry>
        </mxCell>
        <mxCell id="Oqj0lCqGSd9x4aoH6hf5-154" value="&lt;div style=&quot;font-size: 6px;&quot;&gt;mTopS&lt;/div&gt;" style="text;html=1;align=center;verticalAlign=middle;whiteSpace=wrap;rounded=0;fontSize=6;fontColor=#007FFF;allowArrows=0;connectable=0;spacingLeft=2;spacingTop=2;spacingBottom=2;spacingRight=2;" vertex="1" parent="1">
          <mxGeometry x="124" y="280" width="30" height="10" as="geometry" />
        </mxCell>
        <mxCell id="Oqj0lCqGSd9x4aoH6hf5-155" value="&lt;div style=&quot;font-size: 6px;&quot;&gt;mTopS&lt;/div&gt;" style="text;html=1;align=center;verticalAlign=middle;whiteSpace=wrap;rounded=0;fontSize=6;fontColor=#007FFF;allowArrows=0;connectable=0;spacingLeft=2;spacingTop=2;spacingBottom=2;spacingRight=2;" vertex="1" parent="1">
          <mxGeometry x="303.5" y="280" width="30" height="10" as="geometry" />
        </mxCell>
        <mxCell id="Oqj0lCqGSd9x4aoH6hf5-156" value="" style="endArrow=classicThin;html=1;rounded=0;strokeWidth=0.1;strokeColor=#007FFF;startSize=2;endSize=2;endFill=1;startArrow=classicThin;startFill=1;dashed=1;" edge="1" parent="1">
          <mxGeometry width="50" height="50" relative="1" as="geometry">
            <mxPoint x="259.5" y="290" as="sourcePoint" />
            <mxPoint x="379.5" y="290" as="targetPoint" />
          </mxGeometry>
        </mxCell>
        <mxCell id="Oqj0lCqGSd9x4aoH6hf5-157" value="&lt;div style=&quot;font-size: 6px;&quot;&gt;mW&lt;/div&gt;" style="text;html=1;align=center;verticalAlign=middle;whiteSpace=wrap;rounded=0;fontSize=6;fontColor=#007FFF;allowArrows=0;connectable=0;spacingLeft=2;spacingTop=2;spacingBottom=2;spacingRight=2;" vertex="1" parent="1">
          <mxGeometry x="78" y="299" width="19" height="10" as="geometry" />
        </mxCell>
        <mxCell id="Oqj0lCqGSd9x4aoH6hf5-158" value="" style="endArrow=classicThin;html=1;rounded=0;strokeWidth=0.1;strokeColor=#007FFF;startSize=2;endSize=2;endFill=1;startArrow=classicThin;startFill=1;dashed=1;" edge="1" parent="1">
          <mxGeometry width="50" height="50" relative="1" as="geometry">
            <mxPoint x="95" y="425" as="sourcePoint" />
            <mxPoint x="95" y="440" as="targetPoint" />
          </mxGeometry>
        </mxCell>
        <mxCell id="Oqj0lCqGSd9x4aoH6hf5-159" value="&lt;div style=&quot;font-size: 6px;&quot;&gt;mW&lt;/div&gt;" style="text;html=1;align=center;verticalAlign=middle;whiteSpace=wrap;rounded=0;fontSize=6;fontColor=#007FFF;allowArrows=0;connectable=0;spacingLeft=2;spacingTop=2;spacingBottom=2;spacingRight=2;" vertex="1" parent="1">
          <mxGeometry x="78" y="427" width="19" height="10" as="geometry" />
        </mxCell>
        <mxCell id="Oqj0lCqGSd9x4aoH6hf5-160" value="&lt;div style=&quot;font-size: 6px;&quot;&gt;mW&lt;/div&gt;" style="text;html=1;align=center;verticalAlign=middle;whiteSpace=wrap;rounded=0;fontSize=6;fontColor=#007FFF;allowArrows=0;connectable=0;spacingLeft=2;spacingTop=2;spacingBottom=2;spacingRight=2;" vertex="1" parent="1">
          <mxGeometry x="263" y="427" width="19" height="10" as="geometry" />
        </mxCell>
        <mxCell id="Oqj0lCqGSd9x4aoH6hf5-161" value="" style="endArrow=classicThin;html=1;rounded=0;strokeWidth=0.1;strokeColor=#007FFF;startSize=2;endSize=2;endFill=1;startArrow=classicThin;startFill=1;dashed=1;" edge="1" parent="1">
          <mxGeometry width="50" height="50" relative="1" as="geometry">
            <mxPoint x="280" y="425" as="sourcePoint" />
            <mxPoint x="280" y="440" as="targetPoint" />
          </mxGeometry>
        </mxCell>
        <mxCell id="Oqj0lCqGSd9x4aoH6hf5-162" value="" style="endArrow=classicThin;html=1;rounded=0;strokeWidth=0.1;strokeColor=#007FFF;startSize=2;endSize=2;endFill=1;startArrow=classicThin;startFill=1;dashed=1;" edge="1" parent="1">
          <mxGeometry width="50" height="50" relative="1" as="geometry">
            <mxPoint x="259" y="310" as="sourcePoint" />
            <mxPoint x="275" y="310" as="targetPoint" />
          </mxGeometry>
        </mxCell>
        <mxCell id="Oqj0lCqGSd9x4aoH6hf5-163" value="&lt;div style=&quot;font-size: 6px;&quot;&gt;mW&lt;/div&gt;" style="text;html=1;align=center;verticalAlign=middle;whiteSpace=wrap;rounded=0;fontSize=6;fontColor=#007FFF;allowArrows=0;connectable=0;spacingLeft=2;spacingTop=2;spacingBottom=2;spacingRight=2;" vertex="1" parent="1">
          <mxGeometry x="258" y="299" width="19" height="10" as="geometry" />
        </mxCell>
        <mxCell id="Oqj0lCqGSd9x4aoH6hf5-164" value="&lt;div style=&quot;font-size: 6px;&quot;&gt;mW/4&lt;/div&gt;" style="text;html=1;align=center;verticalAlign=middle;whiteSpace=wrap;rounded=0;fontSize=6;fontColor=#007FFF;allowArrows=0;connectable=0;spacingLeft=2;spacingTop=2;spacingBottom=2;spacingRight=2;" vertex="1" parent="1">
          <mxGeometry x="296" y="441" width="19" height="10" as="geometry" />
        </mxCell>
        <mxCell id="Oqj0lCqGSd9x4aoH6hf5-165" value="" style="endArrow=classicThin;html=1;rounded=0;strokeWidth=0.1;strokeColor=#007FFF;startSize=2;endSize=2;endFill=1;startArrow=classicThin;startFill=1;dashed=1;" edge="1" parent="1">
          <mxGeometry width="50" height="50" relative="1" as="geometry">
            <mxPoint x="312" y="435" as="sourcePoint" />
            <mxPoint x="312" y="441" as="targetPoint" />
          </mxGeometry>
        </mxCell>
        <mxCell id="Oqj0lCqGSd9x4aoH6hf5-166" value="" style="endArrow=classicThin;html=1;rounded=0;strokeWidth=0.1;strokeColor=#007FFF;startSize=2;endSize=2;endFill=1;startArrow=classicThin;startFill=1;dashed=1;" edge="1" parent="1">
          <mxGeometry width="50" height="50" relative="1" as="geometry">
            <mxPoint x="330" y="430" as="sourcePoint" />
            <mxPoint x="350" y="430" as="targetPoint" />
          </mxGeometry>
        </mxCell>
        <mxCell id="Oqj0lCqGSd9x4aoH6hf5-167" value="&lt;div style=&quot;font-size: 6px;&quot;&gt;2mW&lt;/div&gt;" style="text;html=1;align=center;verticalAlign=middle;whiteSpace=wrap;rounded=0;fontSize=6;fontColor=#007FFF;allowArrows=0;connectable=0;spacingLeft=2;spacingTop=2;spacingBottom=2;spacingRight=2;" vertex="1" parent="1">
          <mxGeometry x="352" y="424" width="19" height="10" as="geometry" />
        </mxCell>
        <mxCell id="Oqj0lCqGSd9x4aoH6hf5-168" value="" style="endArrow=classicThin;html=1;rounded=0;strokeWidth=0.1;strokeColor=#007FFF;startSize=2;endSize=2;endFill=1;startArrow=classicThin;startFill=1;dashed=1;" edge="1" parent="1">
          <mxGeometry width="50" height="50" relative="1" as="geometry">
            <mxPoint x="340" y="435" as="sourcePoint" />
            <mxPoint x="350" y="435" as="targetPoint" />
          </mxGeometry>
        </mxCell>
        <mxCell id="Oqj0lCqGSd9x4aoH6hf5-169" value="&lt;div style=&quot;font-size: 6px;&quot;&gt;mW&lt;/div&gt;" style="text;html=1;align=center;verticalAlign=middle;whiteSpace=wrap;rounded=0;fontSize=6;fontColor=#007FFF;allowArrows=0;connectable=0;spacingLeft=2;spacingTop=2;spacingBottom=2;spacingRight=2;" vertex="1" parent="1">
          <mxGeometry x="348" y="430" width="19" height="10" as="geometry" />
        </mxCell>
        <mxCell id="Oqj0lCqGSd9x4aoH6hf5-170" value="" style="endArrow=classicThin;html=1;rounded=0;strokeWidth=0.1;strokeColor=#007FFF;startSize=2;endSize=2;endFill=1;startArrow=classicThin;startFill=1;dashed=1;" edge="1" parent="1">
          <mxGeometry width="50" height="50" relative="1" as="geometry">
            <mxPoint x="340" y="425" as="sourcePoint" />
            <mxPoint x="350" y="425" as="targetPoint" />
          </mxGeometry>
        </mxCell>
        <mxCell id="Oqj0lCqGSd9x4aoH6hf5-171" value="&lt;div style=&quot;font-size: 6px;&quot;&gt;mW&lt;/div&gt;" style="text;html=1;align=center;verticalAlign=middle;whiteSpace=wrap;rounded=0;fontSize=6;fontColor=#007FFF;allowArrows=0;connectable=0;spacingLeft=2;spacingTop=2;spacingBottom=2;spacingRight=2;" vertex="1" parent="1">
          <mxGeometry x="338" y="415" width="19" height="10" as="geometry" />
        </mxCell>
        <mxCell id="Oqj0lCqGSd9x4aoH6hf5-172" value="" style="endArrow=none;html=1;rounded=0;strokeWidth=0.1;strokeColor=#007FFF;startSize=2;endSize=2;endFill=0;startArrow=none;startFill=0;dashed=1;" edge="1" parent="1">
          <mxGeometry width="50" height="50" relative="1" as="geometry">
            <mxPoint x="350" y="405" as="sourcePoint" />
            <mxPoint x="350" y="450" as="targetPoint" />
          </mxGeometry>
        </mxCell>
        <mxCell id="Oqj0lCqGSd9x4aoH6hf5-176" value="" style="ellipse;whiteSpace=wrap;html=1;aspect=fixed;fillColor=none;connectable=0;allowArrows=0;" vertex="1" parent="1">
          <mxGeometry x="400" y="320" width="120" height="120" as="geometry" />
        </mxCell>
        <mxCell id="Oqj0lCqGSd9x4aoH6hf5-177" value="" style="ellipse;whiteSpace=wrap;html=1;aspect=fixed;fillColor=none;connectable=0;allowArrows=0;" vertex="1" parent="1">
          <mxGeometry x="415" y="335" width="90" height="90" as="geometry" />
        </mxCell>
        <mxCell id="Oqj0lCqGSd9x4aoH6hf5-178" value="" style="ellipse;whiteSpace=wrap;html=1;aspect=fixed;connectable=0;fillColor=#007FFF;strokeColor=none;" vertex="1" parent="1">
          <mxGeometry x="458" y="378" width="4" height="4" as="geometry" />
        </mxCell>
        <mxCell id="Oqj0lCqGSd9x4aoH6hf5-181" value="" style="endArrow=none;html=1;rounded=0;curved=1;" edge="1" parent="1">
          <mxGeometry width="50" height="50" relative="1" as="geometry">
            <mxPoint x="520" y="370" as="sourcePoint" />
            <mxPoint x="520" y="390" as="targetPoint" />
            <Array as="points">
              <mxPoint x="540" y="370" />
              <mxPoint x="560" y="370" />
              <mxPoint x="560" y="390" />
              <mxPoint x="540" y="390" />
            </Array>
          </mxGeometry>
        </mxCell>
        <mxCell id="Oqj0lCqGSd9x4aoH6hf5-184" value="" style="endArrow=oval;html=1;rounded=0;strokeWidth=0.1;strokeColor=#FF0000;startSize=3;endSize=3;exitX=1;exitY=0.5;exitDx=0;exitDy=0;endFill=1;dashed=1;" edge="1" source="Oqj0lCqGSd9x4aoH6hf5-185" parent="1">
          <mxGeometry width="50" height="50" relative="1" as="geometry">
            <mxPoint x="613" y="359" as="sourcePoint" />
            <mxPoint x="520" y="380" as="targetPoint" />
          </mxGeometry>
        </mxCell>
        <mxCell id="Oqj0lCqGSd9x4aoH6hf5-185" value="uv = 0.0" style="rotation=0;connectable=1;allowArrows=0;fillColor=#FF0000;strokeColor=#FF0000;strokeWidth=0.1;fontSize=6;spacing=0;spacingBottom=0;rounded=1;whiteSpace=wrap;html=1;shape=label;fontColor=#FFFFFF;dashed=1;labelBackgroundColor=none;" vertex="1" parent="1">
          <mxGeometry x="469" y="368" width="30" height="10" as="geometry" />
        </mxCell>
        <mxCell id="Oqj0lCqGSd9x4aoH6hf5-186" value="" style="endArrow=oval;html=1;rounded=0;strokeWidth=0.1;strokeColor=#FF0000;startSize=3;endSize=3;exitX=0;exitY=0.5;exitDx=0;exitDy=0;endFill=1;dashed=1;" edge="1" source="Oqj0lCqGSd9x4aoH6hf5-187" parent="1">
          <mxGeometry width="50" height="50" relative="1" as="geometry">
            <mxPoint x="508" y="394" as="sourcePoint" />
            <mxPoint x="400" y="380" as="targetPoint" />
          </mxGeometry>
        </mxCell>
        <mxCell id="Oqj0lCqGSd9x4aoH6hf5-187" value="uv = 0.5" style="rotation=0;connectable=1;allowArrows=0;fillColor=#FF0000;strokeColor=#FF0000;strokeWidth=0.1;fontSize=6;spacing=0;spacingBottom=0;rounded=1;whiteSpace=wrap;html=1;shape=label;fontColor=#FFFFFF;dashed=1;labelBackgroundColor=none;" vertex="1" parent="1">
          <mxGeometry x="422" y="375" width="30" height="10" as="geometry" />
        </mxCell>
        <mxCell id="Oqj0lCqGSd9x4aoH6hf5-188" value="uv = 1.0" style="rotation=0;connectable=1;allowArrows=0;fillColor=#FF0000;strokeColor=#FF0000;strokeWidth=0.1;fontSize=6;spacing=0;spacingBottom=0;rounded=1;whiteSpace=wrap;html=1;shape=label;fontColor=#FFFFFF;dashed=1;labelBackgroundColor=none;" vertex="1" parent="1">
          <mxGeometry x="469" y="381" width="30" height="10" as="geometry" />
        </mxCell>
        <mxCell id="Oqj0lCqGSd9x4aoH6hf5-189" value="" style="endArrow=oval;html=1;rounded=0;strokeWidth=0.1;strokeColor=#FF0000;startSize=3;endSize=3;exitX=1;exitY=0.5;exitDx=0;exitDy=0;endFill=1;dashed=1;" edge="1" source="Oqj0lCqGSd9x4aoH6hf5-188" parent="1">
          <mxGeometry width="50" height="50" relative="1" as="geometry">
            <mxPoint x="498" y="395" as="sourcePoint" />
            <mxPoint x="520" y="380" as="targetPoint" />
          </mxGeometry>
        </mxCell>
        <mxCell id="Oqj0lCqGSd9x4aoH6hf5-190" value="&lt;div style=&quot;font-size: 6px;&quot;&gt;mTopS&lt;/div&gt;" style="text;html=1;align=center;verticalAlign=middle;whiteSpace=wrap;rounded=0;fontSize=6;fontColor=#007FFF;allowArrows=0;connectable=0;spacingLeft=2;spacingTop=2;spacingBottom=2;spacingRight=2;" vertex="1" parent="1">
          <mxGeometry x="444" y="280" width="30" height="10" as="geometry" />
        </mxCell>
        <mxCell id="Oqj0lCqGSd9x4aoH6hf5-191" value="" style="endArrow=classicThin;html=1;rounded=0;strokeWidth=0.1;strokeColor=#007FFF;startSize=2;endSize=2;endFill=1;startArrow=classicThin;startFill=1;dashed=1;" edge="1" parent="1">
          <mxGeometry width="50" height="50" relative="1" as="geometry">
            <mxPoint x="400" y="290" as="sourcePoint" />
            <mxPoint x="520" y="290" as="targetPoint" />
          </mxGeometry>
        </mxCell>
        <mxCell id="Oqj0lCqGSd9x4aoH6hf5-192" value="&lt;div style=&quot;font-size: 6px;&quot;&gt;mW&lt;/div&gt;" style="text;html=1;align=center;verticalAlign=middle;whiteSpace=wrap;rounded=0;fontSize=6;fontColor=#007FFF;allowArrows=0;connectable=0;spacingLeft=2;spacingTop=2;spacingBottom=2;spacingRight=2;" vertex="1" parent="1">
          <mxGeometry x="443" y="323" width="19" height="10" as="geometry" />
        </mxCell>
        <mxCell id="Oqj0lCqGSd9x4aoH6hf5-193" value="" style="endArrow=classicThin;html=1;rounded=0;strokeWidth=0.1;strokeColor=#007FFF;startSize=2;endSize=2;endFill=1;startArrow=classicThin;startFill=1;dashed=1;" edge="1" parent="1">
          <mxGeometry width="50" height="50" relative="1" as="geometry">
            <mxPoint x="460" y="320" as="sourcePoint" />
            <mxPoint x="460" y="335" as="targetPoint" />
          </mxGeometry>
        </mxCell>
        <mxCell id="Oqj0lCqGSd9x4aoH6hf5-194" value="&lt;div style=&quot;font-size: 6px;&quot;&gt;hW&lt;/div&gt;" style="text;html=1;align=center;verticalAlign=middle;whiteSpace=wrap;rounded=0;fontSize=6;fontColor=#007FFF;allowArrows=0;connectable=0;spacingLeft=2;spacingTop=2;spacingBottom=2;spacingRight=2;" vertex="1" parent="1">
          <mxGeometry x="527" y="375" width="19" height="10" as="geometry" />
        </mxCell>
        <mxCell id="Oqj0lCqGSd9x4aoH6hf5-195" value="" style="endArrow=classicThin;html=1;rounded=0;strokeWidth=0.1;strokeColor=#007FFF;startSize=2;endSize=2;endFill=1;startArrow=classicThin;startFill=1;dashed=1;" edge="1" parent="1">
          <mxGeometry width="50" height="50" relative="1" as="geometry">
            <mxPoint x="529" y="371" as="sourcePoint" />
            <mxPoint x="529" y="390" as="targetPoint" />
          </mxGeometry>
        </mxCell>
        <mxCell id="Oqj0lCqGSd9x4aoH6hf5-196" value="" style="endArrow=classicThin;html=1;rounded=0;strokeWidth=0.1;strokeColor=#007FFF;startSize=2;endSize=2;endFill=1;startArrow=classicThin;startFill=1;dashed=1;" edge="1" parent="1">
          <mxGeometry width="50" height="50" relative="1" as="geometry">
            <mxPoint x="560" y="360" as="sourcePoint" />
            <mxPoint x="520" y="360" as="targetPoint" />
          </mxGeometry>
        </mxCell>
        <mxCell id="Oqj0lCqGSd9x4aoH6hf5-197" value="&lt;div style=&quot;font-size: 6px;&quot;&gt;hS&lt;/div&gt;" style="text;html=1;align=center;verticalAlign=middle;whiteSpace=wrap;rounded=0;fontSize=6;fontColor=#007FFF;allowArrows=0;connectable=0;spacingLeft=2;spacingTop=2;spacingBottom=2;spacingRight=2;" vertex="1" parent="1">
          <mxGeometry x="530" y="350" width="19" height="10" as="geometry" />
        </mxCell>
        <mxCell id="Oqj0lCqGSd9x4aoH6hf5-201" value="" style="endArrow=none;html=1;rounded=0;curved=1;" edge="1" parent="1">
          <mxGeometry width="50" height="50" relative="1" as="geometry">
            <mxPoint x="646" y="321.5" as="sourcePoint" />
            <mxPoint x="622" y="419.5" as="targetPoint" />
            <Array as="points">
              <mxPoint x="718" y="344.5" />
            </Array>
          </mxGeometry>
        </mxCell>
        <mxCell id="Oqj0lCqGSd9x4aoH6hf5-202" value="" style="endArrow=none;html=1;rounded=0;curved=1;" edge="1" parent="1">
          <mxGeometry width="50" height="50" relative="1" as="geometry">
            <mxPoint x="642" y="338.5" as="sourcePoint" />
            <mxPoint x="629" y="390.5" as="targetPoint" />
            <Array as="points">
              <mxPoint x="682" y="346.5" />
            </Array>
          </mxGeometry>
        </mxCell>
        <mxCell id="Oqj0lCqGSd9x4aoH6hf5-223" value="" style="endArrow=classicThin;html=1;rounded=0;strokeWidth=0.1;strokeColor=#007FFF;startSize=2;endSize=2;endFill=1;startArrow=classicThin;startFill=1;dashed=1;" edge="1" parent="1">
          <mxGeometry width="50" height="50" relative="1" as="geometry">
            <mxPoint x="641" y="319" as="sourcePoint" />
            <mxPoint x="635" y="338" as="targetPoint" />
          </mxGeometry>
        </mxCell>
        <mxCell id="Oqj0lCqGSd9x4aoH6hf5-224" value="&lt;div style=&quot;font-size: 6px;&quot;&gt;hT&lt;/div&gt;" style="text;html=1;align=center;verticalAlign=middle;whiteSpace=wrap;rounded=0;fontSize=6;fontColor=#007FFF;allowArrows=0;connectable=0;spacingLeft=2;spacingTop=2;spacingBottom=2;spacingRight=2;" vertex="1" parent="1">
          <mxGeometry x="626" y="337" width="19" height="10" as="geometry" />
        </mxCell>
        <mxCell id="Oqj0lCqGSd9x4aoH6hf5-225" value="&lt;div style=&quot;font-size: 6px;&quot;&gt;hBotH&lt;/div&gt;" style="text;html=1;align=center;verticalAlign=middle;whiteSpace=wrap;rounded=0;fontSize=6;fontColor=#007FFF;allowArrows=0;connectable=0;spacingLeft=2;spacingTop=2;spacingBottom=2;spacingRight=2;" vertex="1" parent="1">
          <mxGeometry x="581" y="417" width="19" height="10" as="geometry" />
        </mxCell>
        <mxCell id="Oqj0lCqGSd9x4aoH6hf5-226" value="" style="endArrow=classicThin;html=1;rounded=0;strokeWidth=0.1;strokeColor=#007FFF;startSize=2;endSize=2;endFill=1;startArrow=classicThin;startFill=1;dashed=1;" edge="1" parent="1">
          <mxGeometry width="50" height="50" relative="1" as="geometry">
            <mxPoint x="600" y="404" as="sourcePoint" />
            <mxPoint x="600" y="440" as="targetPoint" />
          </mxGeometry>
        </mxCell>
        <mxCell id="Oqj0lCqGSd9x4aoH6hf5-228" value="" style="ellipse;whiteSpace=wrap;html=1;aspect=fixed;connectable=0;fillColor=#007FFF;strokeColor=none;" vertex="1" parent="1">
          <mxGeometry x="577.5" y="438" width="4" height="4" as="geometry" />
        </mxCell>
        <mxCell id="Oqj0lCqGSd9x4aoH6hf5-229" value="" style="endArrow=classicThin;html=1;rounded=0;strokeWidth=0.1;strokeColor=#007FFF;startSize=2;endSize=2;endFill=1;startArrow=classicThin;startFill=1;dashed=1;" edge="1" parent="1">
          <mxGeometry width="50" height="50" relative="1" as="geometry">
            <mxPoint x="610" y="330" as="sourcePoint" />
            <mxPoint x="610" y="440" as="targetPoint" />
          </mxGeometry>
        </mxCell>
        <mxCell id="Oqj0lCqGSd9x4aoH6hf5-230" value="&lt;div style=&quot;font-size: 6px;&quot;&gt;hTopH&lt;/div&gt;" style="text;html=1;align=center;verticalAlign=middle;whiteSpace=wrap;rounded=0;fontSize=6;fontColor=#007FFF;allowArrows=0;connectable=0;spacingLeft=2;spacingTop=2;spacingBottom=2;spacingRight=2;" vertex="1" parent="1">
          <mxGeometry x="590" y="368" width="19" height="10" as="geometry" />
        </mxCell>
        <mxCell id="Oqj0lCqGSd9x4aoH6hf5-232" value="&lt;div style=&quot;font-size: 6px;&quot;&gt;hBotX&lt;/div&gt;" style="text;html=1;align=center;verticalAlign=middle;whiteSpace=wrap;rounded=0;fontSize=6;fontColor=#007FFF;allowArrows=0;connectable=0;spacingLeft=2;spacingTop=2;spacingBottom=2;spacingRight=2;" vertex="1" parent="1">
          <mxGeometry x="580" y="393" width="19" height="10" as="geometry" />
        </mxCell>
        <mxCell id="Oqj0lCqGSd9x4aoH6hf5-233" value="" style="ellipse;whiteSpace=wrap;html=1;aspect=fixed;connectable=0;fillColor=#B3B3B3;strokeColor=none;" vertex="1" parent="1">
          <mxGeometry x="624" y="401" width="4" height="4" as="geometry" />
        </mxCell>
        <mxCell id="Oqj0lCqGSd9x4aoH6hf5-236" value="" style="ellipse;whiteSpace=wrap;html=1;aspect=fixed;connectable=0;fillColor=#B3B3B3;strokeColor=none;" vertex="1" parent="1">
          <mxGeometry x="643" y="328" width="4" height="4" as="geometry" />
        </mxCell>
        <mxCell id="Oqj0lCqGSd9x4aoH6hf5-238" value="" style="endArrow=classicThin;html=1;rounded=0;strokeWidth=0.1;strokeColor=#007FFF;startSize=2;endSize=2;endFill=1;startArrow=classicThin;startFill=1;dashed=1;" edge="1" parent="1">
          <mxGeometry width="50" height="50" relative="1" as="geometry">
            <mxPoint x="643" y="330" as="sourcePoint" />
            <mxPoint x="580" y="330" as="targetPoint" />
          </mxGeometry>
        </mxCell>
        <mxCell id="Oqj0lCqGSd9x4aoH6hf5-239" value="&lt;div style=&quot;font-size: 6px;&quot;&gt;hTopX&lt;/div&gt;" style="text;html=1;align=center;verticalAlign=middle;whiteSpace=wrap;rounded=0;fontSize=6;fontColor=#007FFF;allowArrows=0;connectable=0;spacingLeft=2;spacingTop=2;spacingBottom=2;spacingRight=2;" vertex="1" parent="1">
          <mxGeometry x="590" y="320" width="19" height="10" as="geometry" />
        </mxCell>
        <mxCell id="Oqj0lCqGSd9x4aoH6hf5-240" value="" style="endArrow=none;html=1;rounded=0;strokeWidth=0.1;strokeColor=#007FFF;endFill=0;endSize=4;startArrow=none;startFill=0;startSize=4;dashed=1;" edge="1" parent="1">
          <mxGeometry width="50" height="50" relative="1" as="geometry">
            <mxPoint x="580" y="450" as="sourcePoint" />
            <mxPoint x="580" y="300" as="targetPoint" />
          </mxGeometry>
        </mxCell>
        <mxCell id="Oqj0lCqGSd9x4aoH6hf5-241" value="" style="endArrow=classicThin;html=1;rounded=0;strokeWidth=0.1;strokeColor=#007FFF;startSize=2;endSize=2;endFill=1;startArrow=classicThin;startFill=1;dashed=1;" edge="1" parent="1">
          <mxGeometry width="50" height="50" relative="1" as="geometry">
            <mxPoint x="682" y="330" as="sourcePoint" />
            <mxPoint x="647" y="330" as="targetPoint" />
          </mxGeometry>
        </mxCell>
        <mxCell id="Oqj0lCqGSd9x4aoH6hf5-242" value="&lt;div style=&quot;font-size: 6px;&quot;&gt;hTopS&lt;/div&gt;" style="text;html=1;align=center;verticalAlign=middle;whiteSpace=wrap;rounded=0;fontSize=6;fontColor=#007FFF;allowArrows=0;connectable=0;spacingLeft=2;spacingTop=2;spacingBottom=2;spacingRight=2;" vertex="1" parent="1">
          <mxGeometry x="662" y="318" width="19" height="10" as="geometry" />
        </mxCell>
        <mxCell id="Oqj0lCqGSd9x4aoH6hf5-231" value="" style="endArrow=classicThin;html=1;rounded=0;strokeWidth=0.1;strokeColor=#007FFF;startSize=2;endSize=2;endFill=1;startArrow=classicThin;startFill=1;dashed=1;" edge="1" parent="1">
          <mxGeometry width="50" height="50" relative="1" as="geometry">
            <mxPoint x="624" y="403" as="sourcePoint" />
            <mxPoint x="579" y="403" as="targetPoint" />
          </mxGeometry>
        </mxCell>
        <mxCell id="Oqj0lCqGSd9x4aoH6hf5-243" value="" style="endArrow=classicThin;html=1;rounded=0;strokeWidth=0.1;strokeColor=#007FFF;startSize=2;endSize=2;endFill=1;startArrow=classicThin;startFill=1;dashed=1;" edge="1" parent="1">
          <mxGeometry width="50" height="50" relative="1" as="geometry">
            <mxPoint x="658" y="403" as="sourcePoint" />
            <mxPoint x="628" y="403" as="targetPoint" />
          </mxGeometry>
        </mxCell>
        <mxCell id="Oqj0lCqGSd9x4aoH6hf5-244" value="&lt;div style=&quot;font-size: 6px;&quot;&gt;hBotS&lt;/div&gt;" style="text;html=1;align=center;verticalAlign=middle;whiteSpace=wrap;rounded=0;fontSize=6;fontColor=#007FFF;allowArrows=0;connectable=0;spacingLeft=2;spacingTop=2;spacingBottom=2;spacingRight=2;" vertex="1" parent="1">
          <mxGeometry x="639" y="403" width="19" height="10" as="geometry" />
        </mxCell>
        <mxCell id="Oqj0lCqGSd9x4aoH6hf5-245" value="" style="ellipse;whiteSpace=wrap;html=1;aspect=fixed;connectable=0;fillColor=#B3B3B3;strokeColor=none;" vertex="1" parent="1">
          <mxGeometry x="658" y="401" width="4" height="4" as="geometry" />
        </mxCell>
        <mxCell id="Oqj0lCqGSd9x4aoH6hf5-246" value="" style="ellipse;whiteSpace=wrap;html=1;aspect=fixed;connectable=0;fillColor=#B3B3B3;strokeColor=none;" vertex="1" parent="1">
          <mxGeometry x="683" y="328" width="4" height="4" as="geometry" />
        </mxCell>
        <mxCell id="Oqj0lCqGSd9x4aoH6hf5-247" value="" style="endArrow=none;html=1;rounded=0;strokeWidth=0.1;strokeColor=#007FFF;endFill=0;endSize=4;startArrow=none;startFill=0;startSize=4;dashed=1;" edge="1" parent="1">
          <mxGeometry width="50" height="50" relative="1" as="geometry">
            <mxPoint x="660" y="403" as="sourcePoint" />
            <mxPoint x="685" y="331" as="targetPoint" />
          </mxGeometry>
        </mxCell>
      </root>
    </mxGraphModel>
  </diagram>
</mxfile>
